<svg xmlns="http://www.w3.org/2000/svg" width="200px" height="18px" viewBox="0 0 416 64">
  <g fill="none" fill-rule="evenodd">
    <g fill="#FFF" fill-rule="nonzero" transform="translate(4 4)">
      <path d="M2.52238689,20.5857836 C-2.2119082,28.801259 0.797770492,41.2686951 6.03312787,48.8281443 C8.6464,52.6075016 11.2921705,56 14.9160131,56 C14.9843148,56 15.0528,55.9987148 15.1229377,55.9959607 C16.8255213,55.9280262 18.0558689,55.4038295 19.2454557,54.897259 C20.5810098,54.3280787 21.962282,53.7396197 24.1288393,53.7396197 C26.1900066,53.7396197 27.5053639,54.3089836 28.7773902,54.8594361 C30.0310557,55.4018098 31.3223607,55.9629115 33.2304,55.9271082 C37.312341,55.8510951 39.8185705,52.1903475 42.0297443,48.9608918 C44.3371279,45.5889574 45.4945836,42.3150689 45.8851148,41.0639738 L45.9009049,41.0142164 C45.9752656,40.7918689 45.8702426,40.549141 45.6570754,40.4512787 C45.6512,40.4485246 45.6295344,40.4395279 45.6234754,40.4369574 C44.9046557,40.1430033 38.5992393,37.3457574 38.5329574,29.7216787 C38.4714492,23.5275279 43.2632131,20.2473967 44.2242098,19.6528787 L44.2690098,19.6249705 C44.3731148,19.5579541 44.4456393,19.4516459 44.4702426,19.3300984 C44.4948459,19.2087344 44.469141,19.0824131 44.3993705,18.9803279 C41.091882,14.1400918 36.0225049,13.410623 33.9815344,13.322859 C33.685377,13.2932984 33.3796721,13.2784262 33.072682,13.2784262 C30.6755148,13.2784262 28.3791475,14.1837902 26.5342689,14.9112393 C25.2607738,15.4134033 24.1607869,15.847082 23.4021246,15.847082 C22.5496393,15.847082 21.4434098,15.4080787 20.1623869,14.8998557 C18.4493377,14.2199607 16.5076984,13.4495475 14.452223,13.4495475 C14.4032,13.4495475 14.3549115,13.4500984 14.3073574,13.4510164 C9.52807869,13.5213377 5.0120918,16.2556066 2.52238689,20.5857836 Z"/>
      <path d="M33.9857574,0.000367213115 C31.0915672,0.118242623 27.6197508,1.89977705 25.5446295,4.33036066 C23.7810885,6.37335082 22.0583082,9.77961967 22.5121836,13.2130623 C22.5406426,13.427882 22.7154361,13.5936787 22.931541,13.6103869 C23.1268984,13.6256262 23.3262951,13.6333377 23.5249574,13.6335213 C26.3548852,13.6335213 29.4077115,12.0679082 31.4925639,9.54699016 C33.6868459,6.8850623 34.7963803,3.46887869 34.4607475,0.408891803 C34.4343082,0.169101639 34.2233443,-0.00899672131 33.9857574,0.000367213115 Z"/>
    </g>
    <path fill="#FFF" fill-rule="nonzero" d="M1.08691406 2.06231692C.423828125 2.93859869.0546875 4.0165405.0546875 5.17010495L.0546875 50.8290405C.0546875 51.9005737.374267578 52.9071655.951477078 53.7479858L25.7949829 27.8346557 1.08691406 2.06231692zM28.0696411 25.461731L36.1292115 17.0552368 7.79895025.698974609C6.56933594-.0111083437 5.15856928-.179443359 3.84222409.190551813L28.0696411 25.461731zM28.0696411 30.2071534L3.59741211 55.7333984C4.12506106 55.9107056 4.67108152 56 5.2175293 56 6.10406497 56 6.99102786 55.7667237 7.79895025 55.3001708L36.3330078 38.8259888 28.0696411 30.2071534zM47.3405762 23.5284424L39.0579833 18.7462768 30.3447266 27.8342285 39.2613526 37.135376 47.3405762 32.4707031C48.9572754 31.5375977 49.9224243 29.8657837 49.9224243 27.9995728 49.9224243 26.1329346 48.9572754 24.4615479 47.3405762 23.5284424z" transform="translate(90 4)"/>
    <path fill="#FFF" fill-rule="nonzero" d="M56,9.33395556 C56,4.4296 51.5722667,0 46.6666667,0 L9.33333333,0 C4.42773333,0 0,4.4296 0,9.33395556 L0,46.6660444 C0,51.5704 4.42773333,56 9.33395556,56 L28,56 L28,34.8444444 L21.1555556,34.8444444 L21.1555556,25.5111111 L28,25.5111111 L28,21.8748444 C28,15.6034667 32.7089778,9.95555556 38.5,9.95555556 L46.0444444,9.95555556 L46.0444444,19.2888889 L38.5,19.2888889 C37.6743111,19.2888889 36.7111111,20.2912889 36.7111111,21.7927111 L36.7111111,25.5111111 L46.0444444,25.5111111 L46.0444444,34.8444444 L36.7111111,34.8444444 L36.7111111,56 L46.6666667,56 C51.5722667,56 56,51.5704 56,46.6660444 L56,9.33395556 Z" transform="translate(175 4)"/>
    <path fill="#FFF" fill-rule="nonzero" d="M49.5533735,17.2338376 C52.6921021,16.9748863 54.8211415,15.5479907 55.6404826,13.6118979 C54.5082691,14.3074153 50.993652,15.0656891 49.0526218,14.343536 C48.9575128,13.8874803 48.8512297,13.4542923 48.7468956,13.0632019 C47.2678979,7.63237123 42.2039907,3.25709513 36.8980232,3.78565197 C37.3273132,3.61232483 37.76271,3.45095128 38.1968074,3.30607889 C38.7808445,3.09689095 42.2074988,2.53935963 41.6678979,1.32983759 C41.2131415,0.265967517 37.0265244,2.13384687 36.2382367,2.37798608 C37.2788492,1.98663573 38.9997773,1.31346636 39.1841485,0.117716937 C37.5899026,0.336389791 36.024891,1.09011601 34.8156288,2.18607889 C35.2521949,1.71612065 35.5833875,1.14338747 35.6536798,0.52699768 C31.4015777,3.24345244 28.9176984,8.72001856 26.9075452,14.0324826 C25.3291508,12.5028121 23.9301903,11.2982274 22.6751926,10.6293457 C19.1544687,8.74132715 14.9448538,6.77145244 8.3367239,4.31836659 C8.13390255,6.50470534 9.41800464,9.41176798 13.1181624,11.3450023 C12.3164919,11.2376798 10.8504872,11.4771415 9.67799536,11.7579211 C10.1554896,14.2625893 11.7149142,16.3261439 15.9366125,17.3240093 C14.0072761,17.4513411 13.0101903,17.8903759 12.1065244,18.8366589 C12.9852436,20.5786357 15.1294849,22.6288074 18.9867285,22.2079629 C14.6982459,24.0563527 17.2381253,27.4793689 20.7276659,26.9688724 C14.7747749,33.1175684 5.38938283,32.6656705 0,27.5228956 C14.0713318,46.6969838 44.6591555,38.8624408 49.2175035,20.3941346 C52.6327239,20.423239 54.6404084,19.2111183 55.8852715,17.8747842 C53.9176056,18.2087053 51.0656334,17.8636102 49.5533735,17.2338376 Z" transform="translate(351 13)"/>
    <path fill="#FFF" fill-rule="nonzero" d="M40.8689531,0 C49.2121875,0 56,6.7878125 56,15.1310469 L56,40.8689531 C56,49.2121875 49.2121875,56 40.8689531,56 L15.1310469,56 C6.7878125,56 0,49.2121875 0,40.8689531 L0,15.1310469 C0,6.7878125 6.7878125,0 15.1310469,0 L40.8689531,0 Z M51.4758125,40.8689531 L51.4758125,15.1310469 C51.4758125,9.28232812 46.7175625,4.5241875 40.8689531,4.5241875 L15.1310469,4.5241875 C9.28232812,4.5241875 4.5241875,9.2824375 4.5241875,15.1310469 L4.5241875,40.8689531 C4.5241875,46.7176719 9.2824375,51.4758125 15.1310469,51.4758125 L40.8689531,51.4758125 C46.7176719,51.4758125 51.4758125,46.7175625 51.4758125,40.8689531 Z M40.5328437,26.0466719 C41.0249219,29.3645625 40.1953125,32.6754531 38.1970312,35.3693594 C36.1988594,38.063375 33.2712187,39.8179688 29.9532187,40.3100469 C29.3289062,40.4026875 28.7045937,40.4484063 28.0847656,40.4484063 C25.410875,40.4484063 22.8175937,39.5965938 20.6305312,37.9744531 C17.9365156,35.9761719 16.1819219,33.0485313 15.6898437,29.7306406 C15.1977656,26.4128594 16.027375,23.1018594 18.0255469,20.4078438 C20.0237187,17.7138281 22.9513594,15.9592344 26.2693594,15.4671563 C27.491625,15.2859219 28.7309531,15.2859219 29.9533281,15.4671563 C32.6380469,15.8651719 35.0714219,17.0901719 36.990625,19.0092656 C38.9098281,20.9284688 40.1347187,23.3618438 40.5328437,26.0466719 Z M29.2896406,35.83475 C33.6712031,35.1850625 36.707125,31.0918125 36.0574375,26.7104688 C35.534625,23.1850938 32.8147969,20.465375 29.2895312,19.9426719 C28.898625,19.8845938 28.504875,19.8556094 28.1112344,19.8556094 C27.7175937,19.8556094 27.3239531,19.8845938 26.9330469,19.9425625 C24.8105156,20.2573438 22.9376875,21.37975 21.6593125,23.1031719 C20.3810469,24.8265938 19.8504687,26.9446406 20.16525,29.0670625 C20.4799219,31.1894844 21.6023281,33.0624219 23.32575,34.3406875 C25.0491719,35.6189531 27.1672187,36.1499688 29.2896406,35.83475 Z M43.7553594,12.2446406 C44.1765625,12.6658438 44.4179531,13.2489219 44.4179531,13.84425 C44.4179531,14.4394688 44.1765625,15.0225469 43.7553594,15.4438594 C43.3340469,15.8651719 42.7509687,16.1064531 42.15575,16.1064531 C41.5605312,16.1064531 40.9774531,15.8650625 40.5561406,15.4438594 C40.1349375,15.0225469 39.8935469,14.4404531 39.8935469,13.84425 C39.8935469,13.2480469 40.1349375,12.6659531 40.5561406,12.2446406 C40.9774531,11.8233281 41.5605312,11.5820469 42.15575,11.5820469 C42.7509687,11.5820469 43.3340469,11.8234375 43.7553594,12.2446406 Z" transform="translate(266 4)"/>
  </g>
</svg>
