<svg xmlns="http://www.w3.org/2000/svg" xmlns:xlink="http://www.w3.org/1999/xlink" width="383" height="188" viewBox="0 0 383 188">
  <defs>
    <path id="material-icons-sprite-a" d="M8.5,0 C3.808,0 0,3.808 0,8.5 C0,13.192 3.808,17 8.5,17 C13.192,17 17,13.192 17,8.5 C17,3.808 13.192,0 8.5,0 Z M8.5,15.3 C4.7515,15.3 1.7,12.2485 1.7,8.5 C1.7,4.7515 4.7515,1.7 8.5,1.7 C12.2485,1.7 15.3,4.7515 15.3,8.5 C15.3,12.2485 12.2485,15.3 8.5,15.3 Z M11.798,5.3465 L6.8,10.3445 L5.202,8.7465 C5.0431932,8.58733523 4.82759,8.49788724 4.60275,8.49788724 C4.37791,8.49788724 4.1623068,8.58733523 4.0035,8.7465 C3.672,9.078 3.672,9.6135 4.0035,9.945 L6.205,12.1465 C6.5365,12.478 7.072,12.478 7.4035,12.1465 L13.005,6.545 C13.3365,6.2135 13.3365,5.678 13.005,5.3465 C12.6735,5.015 12.1295,5.015 11.798,5.3465 Z"/>
    <path id="material-icons-sprite-b" d="M10.2,0 C4.5696,0 0,4.5696 0,10.2 C0,15.8304 4.5696,20.4 10.2,20.4 C15.8304,20.4 20.4,15.8304 20.4,10.2 C20.4,4.5696 15.8304,0 10.2,0 Z M13.8822,6.4668 C14.9736,6.4668 15.8508,7.344 15.8508,8.4354 C15.8508,9.5268 14.9736,10.404 13.8822,10.404 C12.7908,10.404 11.9136,9.5268 11.9136,8.4354 C11.9034,7.344 12.7908,6.4668 13.8822,6.4668 Z M7.7622,4.8552 C9.0882,4.8552 10.1694,5.9364 10.1694,7.2624 C10.1694,8.5884 9.0882,9.6696 7.7622,9.6696 C6.4362,9.6696 5.355,8.5884 5.355,7.2624 C5.355,5.9262 6.426,4.8552 7.7622,4.8552 Z M7.7622,14.1678 L7.7622,17.9928 C5.3142,17.2278 3.3762,15.3408 2.5194,12.9336 C3.5904,11.7912 6.2628,11.2098 7.7622,11.2098 C8.3028,11.2098 8.9862,11.2914 9.7002,11.4342 C8.0274,12.3216 7.7622,13.4946 7.7622,14.1678 Z M10.2,18.36 C9.9246,18.36 9.6594,18.3498 9.3942,18.3192 L9.3942,14.1678 C9.3942,12.7194 12.393,11.9952 13.8822,11.9952 C14.9736,11.9952 16.8606,12.393 17.799,13.1682 C16.6056,16.1976 13.6578,18.36 10.2,18.36 Z"/>
    <linearGradient id="material-icons-sprite-d" x1="50%" x2="67.306%" y1="26.371%" y2="77.891%">
      <stop offset="0%" stop-color="#FF7558"/>
      <stop offset="78.974%" stop-color="#FB0428"/>
      <stop offset="100%" stop-color="#FD2054"/>
    </linearGradient>
    <path id="material-icons-sprite-c" d="M9.89145,17.303025 L9.01425,16.425825 C7.81065,15.222225 7.82085,13.263825 9.03465,12.080625 L9.89145,11.244225 C9.49365,11.203425 9.19785,11.183025 8.87145,11.183025 C6.14805,11.183025 0.71145,12.549825 0.71145,15.263025 L0.71145,17.303025 L9.89145,17.303025 Z M8.87145,9.143025 C11.12565,9.143025 12.95145,7.317225 12.95145,5.063025 C12.95145,2.808825 11.12565,0.983025 8.87145,0.983025 C6.61725,0.983025 4.79145,2.808825 4.79145,5.063025 C4.79145,7.317225 6.61725,9.143025 8.87145,9.143025 L8.87145,9.143025 Z M14.15505,17.078625 C13.75725,17.476425 13.10445,17.476425 12.70665,17.078625 L10.59525,14.946825 C10.20765,14.549025 10.20765,13.916625 10.59525,13.529025 L10.60545,13.518825 C11.00325,13.121025 11.64585,13.121025 12.03345,13.518825 L13.43085,14.916225 L17.94945,10.367025 C18.34725,9.969225 18.98985,9.969225 19.38765,10.367025 L19.39785,10.377225 C19.78545,10.775025 19.78545,11.407425 19.39785,11.795025 L14.15505,17.078625 Z"/>
    <path id="material-icons-sprite-f" d="M0,15.3 C0,15.861 0.459,16.32 1.02,16.32 L6.12,16.32 L6.12,14.28 L1.02,14.28 C0.459,14.28 0,14.739 0,15.3 Z M0,3.06 C0,3.621 0.459,4.08 1.02,4.08 L10.2,4.08 L10.2,2.04 L1.02,2.04 C0.459,2.04 0,2.499 0,3.06 Z M10.2,17.34 L10.2,16.32 L17.34,16.32 C17.901,16.32 18.36,15.861 18.36,15.3 C18.36,14.739 17.901,14.28 17.34,14.28 L10.2,14.28 L10.2,13.26 C10.2,12.699 9.741,12.24 9.18,12.24 C8.619,12.24 8.16,12.699 8.16,13.26 L8.16,17.34 C8.16,17.901 8.619,18.36 9.18,18.36 C9.741,18.36 10.2,17.901 10.2,17.34 Z M4.08,7.14 L4.08,8.16 L1.02,8.16 C0.459,8.16 0,8.619 0,9.18 C0,9.741 0.459,10.2 1.02,10.2 L4.08,10.2 L4.08,11.22 C4.08,11.781 4.539,12.24 5.1,12.24 C5.661,12.24 6.12,11.781 6.12,11.22 L6.12,7.14 C6.12,6.579 5.661,6.12 5.1,6.12 C4.539,6.12 4.08,6.579 4.08,7.14 Z M18.36,9.18 C18.36,8.619 17.901,8.16 17.34,8.16 L8.16,8.16 L8.16,10.2 L17.34,10.2 C17.901,10.2 18.36,9.741 18.36,9.18 Z M13.26,6.12 C13.821,6.12 14.28,5.661 14.28,5.1 L14.28,4.08 L17.34,4.08 C17.901,4.08 18.36,3.621 18.36,3.06 C18.36,2.499 17.901,2.04 17.34,2.04 L14.28,2.04 L14.28,1.02 C14.28,0.459 13.821,0 13.26,0 C12.699,0 12.24,0.459 12.24,1.02 L12.24,5.1 C12.24,5.661 12.699,6.12 13.26,6.12 Z"/>
    <linearGradient id="material-icons-sprite-i" x1="50%" x2="67.306%" y1="19.933%" y2="85.49%">
      <stop offset="0%" stop-color="#FF7558"/>
      <stop offset="78.974%" stop-color="#FB0428"/>
      <stop offset="100%" stop-color="#FD2054"/>
    </linearGradient>
    <path id="material-icons-sprite-h" d="M1.232925,9.17999266 L12.626325,9.17999266 L7.648725,14.1575927 C7.250925,14.5553927 7.250925,15.2081927 7.648725,15.6059927 C8.046525,16.0037927 8.689125,16.0037927 9.086925,15.6059927 L15.808725,8.88419266 C16.206525,8.48639266 16.206525,7.84379266 15.808725,7.44599266 L9.097125,0.713992659 C8.90655684,0.522994932 8.64783299,0.415657341 8.378025,0.415657341 C8.10821701,0.415657341 7.84949316,0.522994932 7.658925,0.713992659 C7.261125,1.11179266 7.261125,1.75439266 7.658925,2.15219266 L12.626325,7.13999266 L1.232925,7.13999266 C0.671925,7.13999266 0.212925,7.59899266 0.212925,8.15999266 C0.212925,8.72099266 0.671925,9.17999266 1.232925,9.17999266 Z"/>
    <path id="material-icons-sprite-k" d="M1.21237625,9.02699278 L12.4158862,9.02699278 L7.52124625,13.9216328 C7.13007625,14.3128028 7.13007625,14.9547228 7.52124625,15.3458928 C7.91241625,15.7370628 8.54430625,15.7370628 8.93547625,15.3458928 L15.5452462,8.73612278 C15.9364162,8.34495278 15.9364162,7.71306278 15.5452462,7.32189278 L8.94550625,0.702092781 C8.75811423,0.51427835 8.50370244,0.408729719 8.23839125,0.408729719 C7.97308006,0.408729719 7.71866827,0.51427835 7.53127625,0.702092781 C7.14010625,1.09326278 7.14010625,1.72515278 7.53127625,2.11632278 L12.4158862,7.02099278 L1.21237625,7.02099278 C0.66072625,7.02099278 0.20937625,7.47234278 0.20937625,8.02399278 C0.20937625,8.57564278 0.66072625,9.02699278 1.21237625,9.02699278 Z"/>
    <path id="material-icons-sprite-l" d="M12.0073684,0.545789474 C6.54947368,0.545789474 1.88843158,3.9406 0,8.73263158 C1.88843158,13.5246632 6.54947368,16.9194737 12.0073684,16.9194737 C17.4652632,16.9194737 22.1263053,13.5246632 24.0147368,8.73263158 C22.1263053,3.9406 17.4652632,0.545789474 12.0073684,0.545789474 Z M12.0073684,14.1905263 C8.99461053,14.1905263 6.54947368,11.7453895 6.54947368,8.73263158 C6.54947368,5.71987368 8.99461053,3.27473684 12.0073684,3.27473684 C15.0201263,3.27473684 17.4652632,5.71987368 17.4652632,8.73263158 C17.4652632,11.7453895 15.0201263,14.1905263 12.0073684,14.1905263 Z M12.0073684,5.45789474 C10.1953474,5.45789474 8.73263158,6.92061053 8.73263158,8.73263158 C8.73263158,10.5446526 10.1953474,12.0073684 12.0073684,12.0073684 C13.8193895,12.0073684 15.2821053,10.5446526 15.2821053,8.73263158 C15.2821053,6.92061053 13.8193895,5.45789474 12.0073684,5.45789474 Z"/>
    <linearGradient id="material-icons-sprite-n" x1="50%" x2="67.306%" y1="39.006%" y2="62.977%">
      <stop offset="0%" stop-color="#FF7558"/>
      <stop offset="78.974%" stop-color="#FB0428"/>
      <stop offset="100%" stop-color="#FD2054"/>
    </linearGradient>
    <path id="material-icons-sprite-m" d="M5.310885,1.003 L0.707115,5.60677 C0.315945,5.99794 0.315945,6.62983 0.707115,7.021 C1.098285,7.41217 1.730175,7.41217 2.121345,7.021 L6.023015,3.12936 L9.914655,7.021 C10.305825,7.41217 10.937715,7.41217 11.328885,7.021 C11.720055,6.62983 11.720055,5.99794 11.328885,5.60677 L6.725115,1.003 C6.343975,0.61183 5.702055,0.61183 5.310885,1.003 Z"/>
    <linearGradient id="material-icons-sprite-p" x1="50%" x2="67.306%" y1="18.338%" y2="87.373%">
      <stop offset="0%" stop-color="#FF7558"/>
      <stop offset="78.974%" stop-color="#FB0428"/>
      <stop offset="100%" stop-color="#FD2054"/>
    </linearGradient>
    <rect id="material-icons-sprite-q" width="24.072" height="24.072" x="-6.018" y="-8.024"/>
    <path id="material-icons-sprite-r" d="M5.310885,1.003 L0.707115,5.60677 C0.315945,5.99794 0.315945,6.62983 0.707115,7.021 C1.098285,7.41217 1.730175,7.41217 2.121345,7.021 L6.023015,3.12936 L9.914655,7.021 C10.305825,7.41217 10.937715,7.41217 11.328885,7.021 C11.720055,6.62983 11.720055,5.99794 11.328885,5.60677 L6.725115,1.003 C6.343975,0.61183 5.702055,0.61183 5.310885,1.003 Z"/>
    <rect id="material-icons-sprite-t" width="24.072" height="24.072" x="-6.018" y="-8.024"/>
    <path id="material-icons-sprite-u" d="M5.310885,1.003 L0.707115,5.60677 C0.315945,5.99794 0.315945,6.62983 0.707115,7.021 C1.098285,7.41217 1.730175,7.41217 2.121345,7.021 L6.023015,3.12936 L9.914655,7.021 C10.305825,7.41217 10.937715,7.41217 11.328885,7.021 C11.720055,6.62983 11.720055,5.99794 11.328885,5.60677 L6.725115,1.003 C6.343975,0.61183 5.702055,0.61183 5.310885,1.003 Z"/>
    <rect id="material-icons-sprite-w" width="24.072" height="24.072" x="-6.018" y="-8.024"/>
    <linearGradient id="material-icons-sprite-y" x1="50%" x2="67.306%" y1="39.006%" y2="62.977%">
      <stop offset="0%" stop-color="#FF7558"/>
      <stop offset="78.974%" stop-color="#FB0428"/>
      <stop offset="100%" stop-color="#FD2054"/>
    </linearGradient>
    <path id="material-icons-sprite-x" d="M9.904625,1.00299278 L6.012985,4.89463278 L2.121345,1.00299278 C1.93395298,0.81517835 1.67954119,0.709629719 1.41423,0.709629719 C1.14891881,0.709629719 0.894507021,0.81517835 0.707115,1.00299278 C0.315945,1.39416278 0.315945,2.02605278 0.707115,2.41722278 L5.310885,7.02099278 C5.702055,7.41216278 6.333945,7.41216278 6.725115,7.02099278 L11.328885,2.41722278 C11.720055,2.02605278 11.720055,1.39416278 11.328885,1.00299278 C10.937715,0.621852781 10.295795,0.611822781 9.904625,1.00299278 L9.904625,1.00299278 Z"/>
    <rect id="material-icons-sprite-A" width="24.072" height="24.072" x="-6.018" y="-8.024"/>
    <path id="material-icons-sprite-B" d="M12.2,0.554545455 C6.65454545,0.554545455 1.91872727,4.00381818 0,8.87272727 C1.91872727,13.7416364 6.65454545,17.1909091 12.2,17.1909091 C17.7454545,17.1909091 22.4812727,13.7416364 24.4,8.87272727 C22.4812727,4.00381818 17.7454545,0.554545455 12.2,0.554545455 Z M12.2,14.4181818 C9.13890909,14.4181818 6.65454545,11.9338182 6.65454545,8.87272727 C6.65454545,5.81163636 9.13890909,3.32727273 12.2,3.32727273 C15.2610909,3.32727273 17.7454545,5.81163636 17.7454545,8.87272727 C17.7454545,11.9338182 15.2610909,14.4181818 12.2,14.4181818 Z M12.2,5.54545455 C10.3589091,5.54545455 8.87272727,7.03163636 8.87272727,8.87272727 C8.87272727,10.7138182 10.3589091,12.2 12.2,12.2 C14.0410909,12.2 15.5272727,10.7138182 15.5272727,8.87272727 C15.5272727,7.03163636 14.0410909,5.54545455 12.2,5.54545455 Z"/>
    <path id="material-icons-sprite-C" d="M8.5,0 C3.808,0 0,3.808 0,8.5 C0,13.192 3.808,17 8.5,17 C13.192,17 17,13.192 17,8.5 C17,3.808 13.192,0 8.5,0 Z M8.5,15.3 C4.7515,15.3 1.7,12.2485 1.7,8.5 C1.7,4.7515 4.7515,1.7 8.5,1.7 C12.2485,1.7 15.3,4.7515 15.3,8.5 C15.3,12.2485 12.2485,15.3 8.5,15.3 Z M11.798,5.3465 L6.8,10.3445 L5.202,8.7465 C5.0431932,8.58733523 4.82759,8.49788724 4.60275,8.49788724 C4.37791,8.49788724 4.1623068,8.58733523 4.0035,8.7465 C3.672,9.078 3.672,9.6135 4.0035,9.945 L6.205,12.1465 C6.5365,12.478 7.072,12.478 7.4035,12.1465 L13.005,6.545 C13.3365,6.2135 13.3365,5.678 13.005,5.3465 C12.6735,5.015 12.1295,5.015 11.798,5.3465 Z"/>
    <path id="material-icons-sprite-D" d="M9.875,0.999992803 L5.995,4.8799928 L2.115,0.999992803 C1.92816847,0.812740129 1.67451764,0.707507197 1.41,0.707507197 C1.14548236,0.707507197 0.891831526,0.812740129 0.705,0.999992803 C0.315,1.3899928 0.315,2.0199928 0.705,2.4099928 L5.295,6.9999928 C5.685,7.3899928 6.315,7.3899928 6.705,6.9999928 L11.295,2.4099928 C11.685,2.0199928 11.685,1.3899928 11.295,0.999992803 C10.905,0.619992803 10.265,0.609992803 9.875,0.999992803 L9.875,0.999992803 Z"/>
    <path id="material-icons-sprite-E" d="M16,2 L11.82,2 C11.4,0.84 10.3,0 9,0 C7.7,0 6.6,0.84 6.18,2 L2,2 C0.9,2 0,2.9 0,4 L0,18 C0,19.1 0.9,20 2,20 L16,20 C17.1,20 18,19.1 18,18 L18,4 C18,2.9 17.1,2 16,2 Z M9,2 C9.55,2 10,2.45 10,3 C10,3.55 9.55,4 9,4 C8.45,4 8,3.55 8,3 C8,2.45 8.45,2 9,2 Z M6.29,15.29 L3.7,12.7 C3.51274733,12.5131685 3.40751439,12.2595176 3.40751439,11.995 C3.40751439,11.7304824 3.51274733,11.4768315 3.7,11.29 C4.09,10.9 4.72,10.9 5.11,11.29 L7,13.17 L12.88,7.29 C13.27,6.9 13.9,6.9 14.29,7.29 C14.68,7.68 14.68,8.31 14.29,8.7 L7.7,15.29 C7.32,15.68 6.68,15.68 6.29,15.29 Z"/>
    <path id="material-icons-sprite-G" d="M8.5,0 C3.808,0 0,3.808 0,8.5 C0,13.192 3.808,17 8.5,17 C13.192,17 17,13.192 17,8.5 C17,3.808 13.192,0 8.5,0 Z M8.5,15.3 C4.7515,15.3 1.7,12.2485 1.7,8.5 C1.7,4.7515 4.7515,1.7 8.5,1.7 C12.2485,1.7 15.3,4.7515 15.3,8.5 C15.3,12.2485 12.2485,15.3 8.5,15.3 Z M11.798,5.3465 L6.8,10.3445 L5.202,8.7465 C5.0431932,8.58733523 4.82759,8.49788724 4.60275,8.49788724 C4.37791,8.49788724 4.1623068,8.58733523 4.0035,8.7465 C3.672,9.078 3.672,9.6135 4.0035,9.945 L6.205,12.1465 C6.5365,12.478 7.072,12.478 7.4035,12.1465 L13.005,6.545 C13.3365,6.2135 13.3365,5.678 13.005,5.3465 C12.6735,5.015 12.1295,5.015 11.798,5.3465 Z"/>
    <path id="material-icons-sprite-H" d="M14,7.5 L13,7.5 L13,5.5 C13,2.74 10.76,0.5 8,0.5 C5.24,0.5 3,2.74 3,5.5 L3,7.5 L2,7.5 C0.9,7.5 0,8.4 0,9.5 L0,19.5 C0,20.6 0.9,21.5 2,21.5 L14,21.5 C15.1,21.5 16,20.6 16,19.5 L16,9.5 C16,8.4 15.1,7.5 14,7.5 Z M8,16.5 C6.9,16.5 6,15.6 6,14.5 C6,13.4 6.9,12.5 8,12.5 C9.1,12.5 10,13.4 10,14.5 C10,15.6 9.1,16.5 8,16.5 Z M5,7.5 L5,5.5 C5,3.84 6.34,2.5 8,2.5 C9.66,2.5 11,3.84 11,5.5 L11,7.5 L5,7.5 Z"/>
    <path id="material-icons-sprite-I" d="M10,0 C4.48,0 0,4.48 0,10 C0,15.52 4.48,20 10,20 C15.52,20 20,15.52 20,10 C20,4.48 15.52,0 10,0 Z M13.61,6.34 C14.68,6.34 15.54,7.2 15.54,8.27 C15.54,9.34 14.68,10.2 13.61,10.2 C12.54,10.2 11.68,9.34 11.68,8.27 C11.67,7.2 12.54,6.34 13.61,6.34 Z M7.61,4.76 C8.91,4.76 9.97,5.82 9.97,7.12 C9.97,8.42 8.91,9.48 7.61,9.48 C6.31,9.48 5.25,8.42 5.25,7.12 C5.25,5.81 6.3,4.76 7.61,4.76 Z M7.61,13.89 L7.61,17.64 C5.21,16.89 3.31,15.04 2.47,12.68 C3.52,11.56 6.14,10.99 7.61,10.99 C8.14,10.99 8.81,11.07 9.51,11.21 C7.87,12.08 7.61,13.23 7.61,13.89 Z M10,18 C9.73,18 9.47,17.99 9.21,17.96 L9.21,13.89 C9.21,12.47 12.15,11.76 13.61,11.76 C14.68,11.76 16.53,12.15 17.45,12.91 C16.28,15.88 13.39,18 10,18 Z"/>
    <path id="material-icons-sprite-K" d="M1,0.710631088 C0.61,1.10063109 0.61,1.73063109 1,2.12063109 L4.88,6.00063109 L1,9.88063109 C0.61,10.2706311 0.61,10.9006311 1,11.2906311 C1.39,11.6806311 2.02,11.6806311 2.41,11.2906311 L7,6.70063109 C7.39,6.31063109 7.39,5.68063109 7,5.29063109 L2.41,0.700631088 C2.03,0.320631088 1.39,0.320631088 1,0.710631088 Z"/>
    <polygon id="material-icons-sprite-M" points="0 6.49 5.9 .59 11.8 6.49"/>
    <path id="material-icons-sprite-N" d="M2.98,13.6691667 L13.02,13.6691667 C14.0466667,13.6691667 14.6866667,12.5558333 14.1733333,11.6691667 L9.15333333,2.99583333 C8.64,2.10916667 7.36,2.10916667 6.84666667,2.99583333 L1.82666667,11.6691667 C1.31333333,12.5558333 1.95333333,13.6691667 2.98,13.6691667 Z M8,9.0025 C7.63333333,9.0025 7.33333333,8.7025 7.33333333,8.33583333 L7.33333333,7.0025 C7.33333333,6.63583333 7.63333333,6.33583333 8,6.33583333 C8.36666667,6.33583333 8.66666667,6.63583333 8.66666667,7.0025 L8.66666667,8.33583333 C8.66666667,8.7025 8.36666667,9.0025 8,9.0025 Z M8.66666667,11.6691667 L7.33333333,11.6691667 L7.33333333,10.3358333 L8.66666667,10.3358333 L8.66666667,11.6691667 Z"/>
    <path id="material-icons-sprite-P" d="M9,0.666666667 C4.39166667,0.666666667 0.666666667,4.39166667 0.666666667,9 C0.666666667,13.6083333 4.39166667,17.3333333 9,17.3333333 C13.6083333,17.3333333 17.3333333,13.6083333 17.3333333,9 C17.3333333,4.39166667 13.6083333,0.666666667 9,0.666666667 Z M9,15.6666667 C5.325,15.6666667 2.33333333,12.675 2.33333333,9 C2.33333333,5.325 5.325,2.33333333 9,2.33333333 C12.675,2.33333333 15.6666667,5.325 15.6666667,9 C15.6666667,12.675 12.675,15.6666667 9,15.6666667 Z M11.9916667,4.83333333 L9,7.825 L6.00833333,4.83333333 L4.83333333,6.00833333 L7.825,9 L4.83333333,11.9916667 L6.00833333,13.1666667 L9,10.175 L11.9916667,13.1666667 L13.1666667,11.9916667 L10.175,9 L13.1666667,6.00833333 L11.9916667,4.83333333 Z"/>
    <path id="material-icons-sprite-Q" d="M9,0.666666667 C4.39166667,0.666666667 0.666666667,4.39166667 0.666666667,9 C0.666666667,13.6083333 4.39166667,17.3333333 9,17.3333333 C13.6083333,17.3333333 17.3333333,13.6083333 17.3333333,9 C17.3333333,4.39166667 13.6083333,0.666666667 9,0.666666667 Z M9,15.6666667 C5.325,15.6666667 2.33333333,12.675 2.33333333,9 C2.33333333,5.325 5.325,2.33333333 9,2.33333333 C12.675,2.33333333 15.6666667,5.325 15.6666667,9 C15.6666667,12.675 12.675,15.6666667 9,15.6666667 Z M11.9916667,4.83333333 L9,7.825 L6.00833333,4.83333333 L4.83333333,6.00833333 L7.825,9 L4.83333333,11.9916667 L6.00833333,13.1666667 L9,10.175 L11.9916667,13.1666667 L13.1666667,11.9916667 L10.175,9 L13.1666667,6.00833333 L11.9916667,4.83333333 Z"/>
  </defs>
  <g fill="none" fill-rule="evenodd">
    <use fill="#D9475C" fill-rule="nonzero" transform="translate(271.525 41.5)" xlink:href="#material-icons-sprite-a"/>
    <use fill="#D9475C" fill-rule="nonzero" transform="translate(47.295 137.02)" xlink:href="#material-icons-sprite-b"/>
    <g transform="translate(91.22 137.02)">
      <mask id="material-icons-sprite-e" fill="#fff">
        <use xlink:href="#material-icons-sprite-c"/>
      </mask>
      <g fill-rule="nonzero">
        <use fill="url(#material-icons-sprite-d)" xlink:href="#material-icons-sprite-c"/>
        <use fill="#D9475C" xlink:href="#material-icons-sprite-c"/>
      </g>
      <g fill="#D9475C" fill-rule="nonzero" mask="url(#material-icons-sprite-e)">
        <rect width="24.48" height="24.48" transform="translate(-2.04 -3.06)"/>
      </g>
    </g>
    <g transform="translate(139.13 138.04)">
      <mask id="material-icons-sprite-g" fill="#fff">
        <use xlink:href="#material-icons-sprite-f"/>
      </mask>
      <g fill="#D9475C" fill-rule="nonzero" mask="url(#material-icons-sprite-g)">
        <rect width="24.48" height="24.48" transform="translate(-3.06 -3.06)"/>
      </g>
    </g>
    <g transform="translate(232.85 140.92)">
      <mask id="material-icons-sprite-j" fill="#fff">
        <use xlink:href="#material-icons-sprite-h"/>
      </mask>
      <g fill-rule="nonzero">
        <use fill="url(#material-icons-sprite-i)" xlink:href="#material-icons-sprite-h"/>
        <use fill="#D9475C" xlink:href="#material-icons-sprite-h"/>
      </g>
      <rect width="24.48" height="24.48" x="-4.08" y="-4.08" fill="#D9475C" fill-rule="nonzero" mask="url(#material-icons-sprite-j)"/>
    </g>
    <use fill="#FFF" fill-rule="nonzero" transform="translate(344.5 43.64)" xlink:href="#material-icons-sprite-k"/>
    <use fill="#5C5C5C" fill-rule="nonzero" transform="translate(108.154 91)" xlink:href="#material-icons-sprite-l"/>
    <g transform="rotate(-90 72.157 33.121)">
      <mask id="material-icons-sprite-o" fill="#fff">
        <use xlink:href="#material-icons-sprite-m"/>
      </mask>
      <g fill-rule="nonzero">
        <use fill="url(#material-icons-sprite-n)" xlink:href="#material-icons-sprite-m"/>
        <use fill="#BAC5CF" xlink:href="#material-icons-sprite-m"/>
      </g>
      <g fill-rule="nonzero" mask="url(#material-icons-sprite-o)">
        <use fill="url(#material-icons-sprite-p)" xlink:href="#material-icons-sprite-q"/>
        <use fill="#4E4E4E" xlink:href="#material-icons-sprite-q"/>
      </g>
    </g>
    <g transform="rotate(90 60.158 153.636)">
      <mask id="material-icons-sprite-s" fill="#fff">
        <use xlink:href="#material-icons-sprite-r"/>
      </mask>
      <g fill-rule="nonzero">
        <use fill="url(#material-icons-sprite-n)" xlink:href="#material-icons-sprite-r"/>
        <use fill="#BAC5CF" xlink:href="#material-icons-sprite-r"/>
      </g>
      <g fill-rule="nonzero" mask="url(#material-icons-sprite-s)">
        <use fill="url(#material-icons-sprite-p)" xlink:href="#material-icons-sprite-t"/>
        <use fill="#4E4E4E" xlink:href="#material-icons-sprite-t"/>
      </g>
    </g>
    <g transform="rotate(90 89.023 182.501)">
      <mask id="material-icons-sprite-v" fill="#fff">
        <use xlink:href="#material-icons-sprite-u"/>
      </mask>
      <g fill-rule="nonzero">
        <use fill="url(#material-icons-sprite-n)" xlink:href="#material-icons-sprite-u"/>
        <use fill="#BAC5CF" xlink:href="#material-icons-sprite-u"/>
      </g>
      <g fill-rule="nonzero" mask="url(#material-icons-sprite-v)">
        <use fill="url(#material-icons-sprite-p)" xlink:href="#material-icons-sprite-w"/>
        <use fill="#8A9DB0" xlink:href="#material-icons-sprite-w"/>
      </g>
    </g>
    <g transform="translate(73.374 95.248)">
      <mask id="material-icons-sprite-z" fill="#fff">
        <use xlink:href="#material-icons-sprite-x"/>
      </mask>
      <g fill-rule="nonzero">
        <use fill="url(#material-icons-sprite-y)" xlink:href="#material-icons-sprite-x"/>
        <use fill="#BAC5CF" xlink:href="#material-icons-sprite-x"/>
      </g>
      <g fill-rule="nonzero" mask="url(#material-icons-sprite-z)">
        <use fill="url(#material-icons-sprite-p)" xlink:href="#material-icons-sprite-A"/>
        <use fill="#5C5C5C" xlink:href="#material-icons-sprite-A"/>
      </g>
    </g>
    <use fill="#D9475C" fill-rule="nonzero" transform="translate(182.45 138.04)" xlink:href="#material-icons-sprite-B"/>
    <use fill="#8A9DB0" fill-rule="nonzero" transform="translate(243.025 41.5)" xlink:href="#material-icons-sprite-C"/>
    <use fill="#FFF" fill-rule="nonzero" transform="translate(314.025 48)" xlink:href="#material-icons-sprite-D"/>
    <g transform="translate(42.5 40)">
      <mask id="material-icons-sprite-F" fill="#fff">
        <use xlink:href="#material-icons-sprite-E"/>
      </mask>
      <use fill="#FFF" xlink:href="#material-icons-sprite-E"/>
      <rect width="24" height="24" x="-3" y="-2" fill="#FFF" mask="url(#material-icons-sprite-F)"/>
    </g>
    <use fill="#FFF" transform="translate(86 41.5)" xlink:href="#material-icons-sprite-G"/>
    <use fill="#FFF" transform="translate(128.5 39)" xlink:href="#material-icons-sprite-H"/>
    <g transform="translate(168.5 40)">
      <mask id="material-icons-sprite-J" fill="#fff">
        <use xlink:href="#material-icons-sprite-I"/>
      </mask>
      <use fill="#FFF" xlink:href="#material-icons-sprite-I"/>
      <rect width="24" height="24" x="-2" y="-2" fill="#FFF" mask="url(#material-icons-sprite-J)"/>
    </g>
    <g transform="translate(219.15 44)">
      <mask id="material-icons-sprite-L" fill="#fff">
        <use xlink:href="#material-icons-sprite-K"/>
      </mask>
      <use fill="#FFF" xlink:href="#material-icons-sprite-K"/>
      <rect width="24" height="24" x="-8" y="-6" fill="#FFF" mask="url(#material-icons-sprite-L)"/>
    </g>
    <use fill="#232832" transform="translate(157.862 95.72)" xlink:href="#material-icons-sprite-M"/>
    <g transform="translate(298.025 92)">
      <mask id="material-icons-sprite-O" fill="#fff">
        <use xlink:href="#material-icons-sprite-N"/>
      </mask>
      <g fill="#FFAB00" mask="url(#material-icons-sprite-O)">
        <rect width="16" height="16"/>
      </g>
    </g>
    <use fill="#BAC5CF" fill-rule="nonzero" transform="translate(265 138)" xlink:href="#material-icons-sprite-P"/>
    <use fill="#8A9DB0" fill-rule="nonzero" transform="translate(289 138)" xlink:href="#material-icons-sprite-Q"/>
  </g>
</svg>
